<?xml version="1.0" encoding="utf-8"?>
<!-- Generator: Adobe Illustrator 27.5.0, SVG Export Plug-In . SVG Version: 6.00 Build 0)  -->
<svg version="1.1" xmlns="http://www.w3.org/2000/svg" xmlns:xlink="http://www.w3.org/1999/xlink" x="0px" y="0px"
	 viewBox="0 0 500 500" style="enable-background:new 0 0 500 500;" xml:space="preserve">
<g id="BACKGROUND">
	<rect style="fill:#FBF4ED;" width="500" height="500"/>
</g>
<g id="OBJECTS">
	<g style="display:none;">
	</g>
	<path style="fill:#331D1E;" d="M193.197,367.825c5.016-1.99,9.756-3.87,14.636-5.807c-0.018-5.241,1.849-9.938,4.833-14.231
		c2.057-2.96,4.561-5.444,7.798-7.141c2.818-1.476,5.746-1.78,8.844-1.18c1.168,0.226,2.394,0.293,3.584,0.235
		c2.218-0.108,4.335,0.183,6.32,1.193c1.531,0.779,2.343,1.913,2.075,3.777c-0.543,3.778-1.075,7.565-1.387,11.367
		c-0.211,2.571-0.04,5.173-0.04,7.761c0.193,0.076,0.386,0.152,0.579,0.228c0.457-0.413,1.005-0.759,1.355-1.248
		c2.269-3.178,4.633-6.3,6.703-9.605c3.362-5.368,6.548-10.849,9.758-16.311c1.576-2.681,2.68-3.268,5.719-2.685
		c0.679,0.13,1.356,0.323,2,0.573c2.202,0.854,2.608,1.617,2.239,3.974c-0.443,2.828-0.964,5.648-1.275,8.49
		c-0.314,2.865-0.039,5.703,1.125,8.673c0.664-0.41,1.31-0.656,1.747-1.105c1.754-1.801,3.569-3.565,5.134-5.524
		c5.918-7.41,11.185-15.262,15.635-23.648c0.122-0.23,0.236-0.464,0.361-0.693c1.951-3.576,5.22-4.361,8.67-2.131
		c1.184,0.765,1.431,1.778,1.326,3.119c-0.738,9.401,0.269,18.722,1.332,28.364c0.728-0.441,1.325-0.716,1.821-1.116
		c4.627-3.744,8.512-8.144,11.79-13.119c3.497-5.307,4.559-11.142,4.344-17.377c-0.068-1.954,0.371-3.932,0.659-5.888
		c0.192-1.307,1.119-1.924,2.376-1.998c2.733-0.162,5.116,0.507,6.964,2.735c2.077,2.504,3.053,5.304,3.309,8.561
		c0.678,8.611-1.831,16.032-7.41,22.611c-5.413,6.384-11.693,11.597-19.141,15.408c-1.154,0.59-2.3,1.195-3.241,1.686
		c-0.193,4.472-0.206,8.724-0.601,12.94c-0.505,5.385-2.459,10.272-5.948,14.477c-5.059,6.098-12.113,8.195-19.677,5.86
		c-7.579-2.34-11.133-8.854-9.002-16.514c1.076-3.867,3.257-7.069,6.036-9.896c3.007-3.059,6.52-5.451,10.189-7.627
		c2.31-1.369,4.644-2.699,7.152-4.155c-0.24-6.124-0.48-12.269-0.737-18.84c-0.627,0.612-1.061,0.937-1.37,1.354
		c-2.382,3.205-4.683,6.472-7.129,9.627c-1.272,1.64-2.76,3.117-4.196,4.624c-5.891,6.178-16.207,4.422-19.972-2.119
		c-0.444,0.594-0.868,1.097-1.221,1.645c-1.41,2.19-2.753,4.424-4.21,6.581c-1.018,1.508-2.137,2.955-3.286,4.368
		c-4.608,5.667-10.541,5.216-15.727,2.656c-2.026-1.001-3.357-2.714-4.231-4.778c-0.366-0.866-0.683-1.753-1.19-3.064
		c-2.547,2.823-5.098,5.312-8.809,5.801c-3.692,0.486-7.051-0.469-10.05-2.635c-2.787,1.903-5.48,3.785-8.217,5.602
		c-5.693,3.781-11.534,3.31-17.257,0.224c-4.096-2.209-5.286-6.25-5.644-10.554c-0.162-1.951-0.028-3.927-0.028-6.525
		c-1.02,1.159-1.639,1.827-2.219,2.529c-2.44,2.953-5.006,5.774-8.172,7.985c-4.009,2.8-8.303,3.236-12.881,1.634
		c-3.695-1.293-5.704-3.922-5.909-7.755c-0.11-2.053,0.012-4.195,0.483-6.189c1.742-7.373,5.438-13.686,11.04-18.796
		c4.594-4.19,9.878-4.834,15.466-2.294c1.694,0.77,3.129,2.112,4.96,3.385c2.256-3.331,4.881-6.639,6.76-10.465
		c1.645-3.349,3.367-6.659,4.994-10.017c0.912-1.883,2.455-2.764,4.404-2.578c1.781,0.17,3.607,0.556,5.256,1.23
		c2.002,0.818,2.197,1.681,1.416,3.72c-0.745,1.945-1.558,3.864-2.282,5.817c-3.865,10.431-7.205,21.015-8.99,32.027
		c-0.585,3.609-0.788,7.252-0.245,10.897C192.77,366.452,192.954,366.933,193.197,367.825z M159.99,360.797
		c0.397-0.236,0.64-0.337,0.832-0.5c5.738-4.887,10.088-10.978,14.619-16.909c0.247-0.323,0.525-0.831,0.44-1.164
		c-0.662-2.576-1.384-5.145-3.478-6.889C166.026,337.774,157.648,354.595,159.99,360.797z M291.607,371.953
		c-4.415,2.443-8.219,5.107-10.932,9.041c-0.971,1.407-1.834,2.994-2.291,4.627c-0.902,3.227-0.554,6.303,1.962,8.788
		C287.253,391.49,292.085,381.909,291.607,371.953z M218.887,358.316c2.916-2.769,8.336-11.515,9.212-14.767
		C222.701,347.412,220.411,352.627,218.887,358.316z"/>
	<path style="fill:#F8BCCD;" d="M166.709,400.138c4.801,3.05,10.049,3.874,15.502,3.574c3.81-0.21,7.633-0.471,11.405-1.018
		c4.218-0.612,8.305-0.036,12.418,0.675c2.052,0.355,4.113,0.656,6.169,0.987c2.062,0.333,2.513,0.694,2.564,1.947
		c0.071,1.75-1.34,1.813-2.458,2.129c-8.102,2.289-16.245,2.379-24.443,0.479c-2.947-0.683-5.942-1.162-9.09-1.425
		c0.673,0.484,1.343,0.973,2.02,1.452c7.298,5.168,14.598,10.332,21.893,15.504c0.495,0.351,1.063,0.671,1.404,1.144
		c0.316,0.438,0.672,1.256,0.476,1.561c-0.307,0.476-1.037,0.788-1.644,0.926c-0.462,0.105-1.019-0.137-1.519-0.276
		c-2.172-0.604-4.341-1.22-6.508-1.845c-7.425-2.14-13.834-5.979-19.15-11.59c-2.088-2.204-4.059-4.518-6.104-6.763
		c-0.519-0.57-1.035-1.235-1.698-1.566c-3.626-1.813-7.297-3.535-11.419-5.512c0.302,1.124,0.349,1.816,0.658,2.359
		c1.199,2.107,2.303,4.304,3.767,6.218c4.323,5.652,7.377,11.932,9.811,18.574c1.522,4.154,3.222,8.242,4.845,12.359
		c0.063,0.161,0.172,0.305,0.228,0.467c0.284,0.823,0.727,1.839-0.235,2.313c-0.509,0.25-1.537-0.07-2.092-0.467
		c-10.286-7.343-16.944-17.029-18.881-29.68c-0.591-3.857-1.034-7.737-1.508-11.611c-0.208-1.699-0.994-2.765-2.63-3.501
		c-3.072-1.383-6.028-3.025-9.497-4.796c0.353,1.207,0.588,2.071,0.857,2.924c2.993,9.483,4.58,19.231,5.49,29.105
		c0.071,0.771,0.11,1.584-0.058,2.327c-0.282,1.243-1.403,1.557-2.379,0.717c-0.387-0.333-0.722-0.762-0.975-1.208
		c-2.354-4.149-4.829-8.239-6.985-12.49c-2.454-4.839-2.955-10.037-2.605-15.458c0.289-4.48-0.043-9.007-0.258-13.506
		c-0.04-0.844-0.796-1.669-1.272-2.473c-1.541-2.605-3.111-5.193-4.655-7.796c-0.175-0.295-0.277-0.637-0.388-0.965
		c-0.611-1.813-0.397-2.986,0.625-3.484c0.971-0.473,1.857-0.105,2.897,1.533c1.254,1.974,2.355,4.046,3.519,6.077
		c0.733,1.279,1.404,2.597,2.201,3.836c1.733,2.696,4.892,3.804,7.927,2.764c1.308-0.448,2.59-1.007,3.821-1.639
		c5.653-2.902,11.685-3.779,17.944-3.387c3.117,0.195,6.225,0.539,9.337,0.82c0.345,0.031,0.746-0.004,1.018,0.161
		c0.49,0.299,1.182,0.673,1.267,1.116c0.082,0.424-0.383,1.222-0.813,1.427c-1.477,0.706-3.003,1.39-4.584,1.784
		c-6.732,1.677-13.495,3.223-20.236,4.866c-2.88,0.702-5.758,0.635-8.792,0.51c1.377,0.658,2.731,1.368,4.134,1.963
		c3.193,1.356,6.414,2.648,9.618,3.98c3.1,1.289,6.137,0.776,9.133-0.343c4.886-1.826,9.871-3.241,15.004-4.231
		c7.569-1.461,15.163-1.727,22.816-1.077c1.038,0.088,2.079,0.135,3.117,0.223c1.095,0.093,2.52-0.13,2.758,1.33
		c0.255,1.564-1.222,1.689-2.268,1.945c-6.316,1.541-12.612,3.189-18.976,4.506C181.81,400.144,174.278,400.558,166.709,400.138z"/>
	<path style="fill:#F8BCCD;" d="M437.278,353.538c-0.296,2.342-0.172,4.434,0.776,6.433c0.409,0.862,0.753,1.788,1.322,2.535
		c3.117,4.096,4.513,8.927,6.189,13.682c1.202,3.411,2.845,6.7,4.594,9.877c4.175,7.582,5.751,15.57,4.22,24.106
		c-0.241,1.342-0.8,2.647-1.361,3.903c-0.403,0.904-1.17,1.498-2.278,1.432c-1.118-0.067-1.836-0.776-2.055-1.72
		c-0.605-2.609-1.121-5.245-1.536-7.891c-0.565-3.596-0.771-7.265-1.574-10.802c-0.606-2.668-1.595-5.36-2.966-7.72
		c-2.789-4.801-4.744-9.828-5.568-15.309c-0.089-0.593-0.294-1.169-0.54-2.122c-0.923,2.747-1.809,5.121-2.51,7.548
		c-0.721,2.498-0.148,4.995,0.328,7.472c0.67,3.491,1.437,6.968,1.955,10.481c0.646,4.373-0.142,8.671-1.332,12.86
		c-0.852,2.996-2.018,5.905-3.083,8.838c-0.234,0.646-0.535,1.324-0.992,1.814c-0.361,0.387-1.059,0.763-1.514,0.673
		c-0.434-0.086-0.985-0.742-1.066-1.217c-0.216-1.276-0.295-2.592-0.273-3.889c0.161-9.367-0.097-18.763,1.823-28.018
		c0.082-0.396,0.01-0.824-0.354-1.431c-1.441,2.22-2.928,4.412-4.306,6.67c-0.857,1.405-1.536,2.917-2.318,4.369
		c-2.072,3.846-4.574,7.358-7.778,10.368c-3.923,3.685-7.765,7.457-11.666,11.167c-0.847,0.805-1.807,2.214-3.041,1.222
		c-1.369-1.1,0.144-2.172,0.728-3.099c5.154-8.182,11.332-15.574,17.684-22.832c3.716-4.246,7.41-8.5,10.146-13.503
		c2.839-5.189,4.23-10.769,5.115-17.133c-0.712,0.789-1.123,1.14-1.407,1.574c-1.903,2.903-3.753,5.841-5.67,8.735
		c-4.638,7.002-10.627,12.814-16.553,18.674c-2.462,2.435-5.281,4.52-7.105,7.569c-0.238,0.398-0.973,0.498-1.477,0.736
		c-0.202-0.594-0.572-1.193-0.558-1.783c0.013-0.564,0.421-1.12,0.663-1.677c3.255-7.511,8.064-13.952,13.697-19.818
		c5.292-5.51,10.574-11.031,15.924-16.483c1.29-1.315,2.098-2.685,2.07-4.569c-0.018-1.239,0.191-2.481,0.303-3.785
		c-0.342,0.065-0.476,0.055-0.497,0.1c-3.07,6.371-8.914,10.036-14.045,14.395c-0.322,0.273-0.734,0.558-1.128,0.599
		c-0.464,0.048-1.112-0.015-1.389-0.306c-0.272-0.286-0.366-0.995-0.208-1.384c0.321-0.792,0.785-1.559,1.329-2.223
		c3.187-3.893,6.373-7.787,9.643-11.61c1.803-2.109,3.768-4.08,5.702-6.158c-0.455-4.273-0.944-8.578-1.349-12.89
		c-0.089-0.949-0.658-2.385,0.754-2.671c1.63-0.329,1.587,1.272,1.777,2.304c0.801,4.35,1.663,8.696,2.237,13.078
		c0.298,2.276,1.329,3.823,3.106,5.105c4.293,3.1,8.565,6.229,12.807,9.399c1.735,1.297,3.459,2.633,5.032,4.117
		c6.043,5.705,8.884,12.914,9.648,21.053c0.163,1.729,0.341,3.459,0.408,5.192c0.04,1.031-0.004,2.097-0.224,3.101
		c-0.422,1.929-1.777,2.318-3.193,0.909c-0.728-0.724-1.396-1.587-1.834-2.509c-1.374-2.895-2.68-5.824-3.905-8.785
		c-0.828-2.002-1.419-4.101-2.215-6.117c-1.395-3.531-3.713-6.431-6.304-9.166c-4.056-4.282-8.026-8.647-12.039-12.97
		C437.896,353.876,437.664,353.785,437.278,353.538z"/>
	<path style="fill:#F8BCCD;" d="M353.218,115.022c-0.107-0.473-0.14-0.979-0.333-1.413c-0.81-1.823-1.513-3.717-2.539-5.415
		c-2.838-4.698-3.676-9.872-3.899-15.21c-0.044-1.047-0.456-2.526,1.097-2.793c1.53-0.263,1.568,1.265,2.025,2.243
		c1.171,2.51,2.447,4.973,3.552,7.51c0.998,2.29,1.994,4.605,2.691,6.996c1.235,4.232,2.242,8.53,3.345,12.801
		c0.21-0.016,0.419-0.032,0.629-0.048c0.075-0.42,0.251-0.85,0.208-1.257c-0.504-4.738-0.945-9.486-1.606-14.202
		c-0.414-2.953-1.706-5.626-3.388-8.102c-3.122-4.594-6.23-9.198-9.313-13.818c-0.573-0.859-1.114-1.775-1.448-2.741
		c-0.161-0.466,0.022-1.429,0.348-1.6c0.499-0.262,1.411-0.269,1.868,0.036c0.845,0.565,1.557,1.378,2.202,2.185
		c2.075,2.596,4.408,4.906,7.159,6.78c2.797,1.905,4.397,4.577,5.207,7.827c1.271,5.098,1.532,10.264,1.513,15.498
		c-0.014,3.892,0.432,7.788,0.717,11.679c0.047,0.64,0.322,1.263,0.828,1.84c0.044-0.573,0.105-1.145,0.128-1.719
		c0.285-7.193,0.529-14.389,0.863-21.58c0.141-3.032,0.424-6.059,0.732-9.079c0.108-1.057-0.029-2.541,1.464-2.685
		c1.439-0.139,1.62,1.311,2.074,2.305c4.033,8.824,3.077,17.748,0.59,26.725c-0.785,2.835-1.438,5.709-2.075,8.582
		c-0.636,2.867,0.073,5.289,2.837,7.128c0.111-0.495,0.243-0.924,0.299-1.363c0.976-7.524,3.198-14.738,5.477-21.936
		c0.208-0.658,0.433-1.358,0.843-1.89c0.326-0.424,0.976-0.892,1.428-0.843c0.439,0.048,1.005,0.664,1.165,1.146
		c0.237,0.715,0.316,1.556,0.201,2.302c-0.919,5.912-1.781,11.838-2.922,17.708c-0.439,2.26-1.431,4.447-2.412,6.555
		c-0.639,1.372-0.567,2.453,0.274,3.618c1.066,1.478,2.116,2.969,3.128,4.484c0.435,0.652,0.874,1.416,0.038,2.079
		c-0.819,0.65-1.519,0.116-2.034-0.473c-1.485-1.697-2.911-3.446-4.346-5.186c-0.497-0.602-0.919-1.268-1.435-1.852
		c-2.026-2.295-2.877-2.32-5.585-0.933c-4.628,2.371-9.329,4.602-14.018,6.853c-0.774,0.372-1.63,0.674-2.473,0.762
		c-0.497,0.052-1.281-0.251-1.496-0.638c-0.181-0.327,0.137-1.129,0.476-1.499c0.453-0.494,1.127-0.795,1.728-1.142
		c4.959-2.863,9.888-5.784,15.319-7.713c0.229-0.081,0.412-0.289,0.658-0.468c-1.995-1.15-4.114-1.314-6.313-1.404
		c-4.587-0.188-9.184-0.408-13.744-0.912c-3.756-0.415-7.085-2.24-10.395-3.975c-0.154-0.08-0.378-0.139-0.437-0.268
		c-0.266-0.583-0.685-1.206-0.636-1.779c0.025-0.286,0.956-0.732,1.445-0.694c1.376,0.108,2.74,0.409,4.102,0.672
		c6.469,1.252,12.936,2.519,19.405,3.769c0.128,0.025,0.284-0.089,0.679-0.226c-2.969-2.55-6.154-4.435-9.816-5.312
		c-3.366-0.807-6.792-1.416-10.222-1.896c-3.6-0.503-6.936-1.664-9.921-3.666c-2.662-1.785-5.161-3.814-7.713-5.76
		c-0.699-0.533-1.539-1.283-0.907-2.136c0.401-0.541,1.534-0.952,2.207-0.807c3.298,0.71,6.646,1.372,9.801,2.527
		c5.044,1.847,9.951,4.067,14.914,6.134c0.776,0.323,1.544,0.665,2.552,0.698c-0.354-0.395-0.661-0.847-1.068-1.176
		c-3.04-2.453-6.15-4.822-9.138-7.335c-2.453-2.064-4.858-4.202-7.107-6.483c-1.067-1.082-1.875-2.5-2.514-3.897
		c-0.536-1.173,0.291-2.148,1.555-1.91c0.993,0.187,2.005,0.618,2.85,1.18c3.099,2.062,6.358,3.967,9.123,6.421
		c2.619,2.324,5.495,4.535,7.098,7.864c0.46,0.954,1.331,1.71,2.014,2.556C352.951,115.175,353.085,115.099,353.218,115.022z"/>
	<path style="fill:#F8BCCD;" d="M80.326,200.975c-1.753-1.027-3.41-2.298-5.279-3.033c-5.486-2.16-11.049-4.13-16.598-6.129
		c-2.939-1.059-5.938-1.952-8.862-3.049c-3.934-1.476-7.947-2.49-12.162-2.644c-0.691-0.025-1.442-0.007-2.047-0.275
		c-0.553-0.245-1.279-0.828-1.315-1.307c-0.037-0.503,0.565-1.179,1.058-1.559c0.45-0.346,1.116-0.462,1.706-0.566
		c10.545-1.844,20.645-0.802,29.773,5.185c5.143,3.373,10.008,7.169,15.035,10.723c2.035,1.438,4.167,2.738,6.514,4.271
		c-0.108-2.54-1.161-4.421-2.23-6.251c-2.801-4.796-5.774-9.493-8.496-14.332c-1.482-2.635-2.592-5.48-3.869-8.231
		c-0.841-1.81-0.828-3.726-0.523-5.621c0.11-0.686,0.546-1.638,1.078-1.846c0.51-0.2,1.366,0.348,2.013,0.678
		c0.367,0.187,0.66,0.566,0.919,0.91c3.232,4.295,6.524,8.548,9.645,12.922c1.725,2.417,2.68,5.217,3.36,8.128
		c0.788,3.373,1.878,6.676,2.65,10.052c0.458,2.005,0.71,4.088,0.768,6.144c0.05,1.772,0.426,3.173,1.915,4.292
		c1.241,0.932,2.329,2.078,3.432,3.182c0.545,0.546,1.11,1.152,1.401,1.843c0.19,0.45,0.064,1.216-0.227,1.622
		c-0.195,0.273-1.035,0.374-1.395,0.186c-1.301-0.678-2.69-1.333-3.736-2.324c-2.142-2.028-4.271-1.93-6.535-0.425
		c-2.155,1.433-4.428,2.745-6.362,4.438c-2.5,2.187-5.066,4.184-8.051,5.672c-3.261,1.626-6.417,3.463-9.679,5.085
		c-1.156,0.575-2.618,1.756-3.754,0.289c-1.006-1.3,0.469-2.329,1.044-3.434c1.555-2.99,4.133-4.864,6.961-6.453
		c6.131-3.445,12.312-6.791,19.036-8.984c0.146-0.048,0.255-0.206,0.382-0.313c-2.705-3.07-7.581-4.454-11.185-2.781
		c-4.638,2.152-9.17,4.545-13.675,6.97c-7.426,3.998-15.38,6.328-23.634,7.772c-0.506,0.089-1.05,0.146-1.548,0.059
		c-1.147-0.201-1.542-1.231-0.775-2.126c0.499-0.582,1.179-1.016,1.803-1.481c4.481-3.339,9.528-5.682,14.454-8.249
		c4.97-2.59,10.225-4.296,15.685-5.443c0.506-0.106,1.003-0.26,1.499-0.409c0.063-0.019,0.094-0.14,0.273-0.424
		c-4.399-0.438-8.676-0.683-12.912,0.325c-2.528,0.602-5.049,1.295-7.496,2.165c-6.529,2.322-13.252,2.536-20.054,2.079
		c-0.509-0.034-1.056-0.12-1.502-0.347c-0.901-0.457-1.028-1.498-0.226-2.116c0.607-0.467,1.335-0.813,2.057-1.089
		c9.005-3.443,18.289-5.396,27.975-5.217c7.203,0.133,14.4,0.308,21.476,1.957C80.185,201.302,80.256,201.139,80.326,200.975z"/>
	<g>
		<path style="fill:#331D1E;" d="M214.428,156.597c1.318-1.52,2.673-2.677,3.512-4.132c1.857-3.221,3.549-6.546,4.476-10.198
			c0.447-1.762,0.984-3.503,1.522-5.24c0.71-2.293,1.34-2.739,3.731-2.76c3.365-0.03,4.668,1.312,4.677,4.595
			c0.005,1.634,0.258,3.267,0.849,5.04c0.752-1.377,1.445-2.792,2.275-4.121c0.728-1.166,1.477-2.371,2.447-3.324
			c4.608-4.527,14.556-1.801,15.272,5.51c0.236,2.411,0.747,4.773,0.558,7.42c1.153-1.622,2.347-3.217,3.451-4.873
			c1.584-2.375,3.054-4.827,4.661-7.186c1.693-2.484,4.071-1.747,6.349-1.142c2.191,0.581,2.93,2.284,3.087,4.329
			c0.144,1.863,0.216,3.732,0.32,5.598c0.179,0.018,0.359,0.037,0.538,0.055c0.407-0.737,0.824-1.468,1.219-2.211
			c2.421-4.555,5.437-8.686,9.194-12.209c4.177-3.917,8.338-3.817,12.695-1.58c2.62,1.346,3.771,3.922,3.864,6.926
			c0.339,10.948-7.695,19.844-17.508,23.002c0.911,1.287,2.148,1.296,3.306,0.729c2.015-0.985,4.125-1.919,5.862-3.296
			c3.611-2.862,6.692-6.293,9.46-9.986c1.976-2.636,3.956-5.269,5.887-7.938c0.828-1.145,1.792-1.868,3.273-1.656
			c1.53,0.219,3.138,0.208,4.574,0.699c1.958,0.67,2.337,1.562,2.046,3.633c-0.434,3.087-1.028,6.155-1.352,9.253
			c-0.204,1.951-0.038,3.941-0.038,6.068c1.334-0.178,1.958-1.017,2.607-1.766c3.867-4.453,7.712-8.927,11.577-13.383
			c0.909-1.048,2.013-1.954,2.775-3.095c2.36-3.536,6.798-2.836,9.867-1.374c1.529,0.728,1.802,1.426,1.364,3.18
			c-1.322,5.292-2.713,10.567-4.071,15.85c-1.164,4.531-2.32,9.065-3.546,13.856c0.61,0.219,1.211,0.594,1.833,0.633
			c4.147,0.259,8.266,0.697,12.46,0.088c3.402-0.494,6.12-2.02,8.267-4.442c2.642-2.981,4.945-6.23,6.351-10.065
			c0.8-2.182,2.029-4.207,3.083-6.294c0.667-1.32,1.754-1.781,3.222-1.671c1.806,0.135,3.677,0.354,4.286,2.304
			c1.329,4.249,2.256,8.509-0.03,12.85c-1.377,2.615-2.537,5.313-4.668,7.454c-2.906,2.921-6.427,4.661-10.398,5.538
			c-7.4,1.635-14.805,1.244-22.218,0.025c-1.349-0.222-2.742-0.171-4.135-0.248c-0.978,2.198-1.938,4.224-2.789,6.296
			c-2.206,5.368-5.32,10.166-9.434,14.219c-3.989,3.93-8.994,6.051-14.442,7.204c-3.023,0.64-5.995,0.485-9.031,0.025
			c-3.333-0.506-6.102-1.957-8.362-4.351c-2.138-2.264-2.865-5.173-2.816-8.167c0.119-7.106,3.909-12.272,9.364-16.291
			c5.742-4.23,12.479-5.382,19.43-5.572c2.335-0.064,4.673-0.01,7.307-0.01c1.055-3.278,2.092-6.5,3.129-9.721
			c-0.112-0.142-0.225-0.283-0.337-0.424c-3.2,3.676-7.087,5.753-11.924,5.061c-4.68-0.669-8.452-2.688-9.553-8.285
			c-1.159,1.05-1.971,1.764-2.759,2.503c-3.858,3.621-8.365,5.898-13.679,6.213c-3.934,0.233-7.791-0.267-11.27-2.382
			c-0.361-0.219-0.78-0.343-1.365-0.594c-0.73,2.584-1.548,5.024-2.1,7.522c-1.159,5.246-2.201,10.519-3.246,15.79
			c-0.458,2.308-1.362,3.098-3.688,3.003c-5.45-0.223-6.65-1.344-6.291-6.758c0.366-5.526,1.083-11.028,1.662-16.539
			c0.506-4.822,1.032-9.643,1.11-14.71c-0.635,0.753-1.286,1.493-1.902,2.261c-3.778,4.711-8.314,8.294-14.266,9.903
			c-1.956,0.529-3.884,0.794-5.896,0.593c-1.193-0.119-2.398-0.128-3.74-0.193c-0.399,3.495-1.1,6.782-0.796,10.208
			c0.574,6.486,0.99,12.986,1.469,19.48c0.032,0.433,0.052,0.867,0.063,1.301c0.095,3.767-0.941,4.951-4.727,5.364
			c-0.602,0.066-1.216,0.069-1.821,0.035c-3.966-0.223-5.201-1.371-5.294-5.464c-0.208-9.2-0.293-18.404-0.409-27.606
			c-0.035-2.756-0.005-5.512-0.005-8.65c-7.132,5.05-13.665,4.342-20.016-0.883c-0.738,1.574-1.498,3.11-2.185,4.678
			c-1.533,3.499-3.894,6.047-7.918,6.223c-4.812,0.211-8.734-1.527-10.792-6.153c-1.303-2.929-2.26-5.96-2.188-9.29
			c0.115-5.34,2.377-9.618,6.399-12.835c3.479-2.782,7.558-2.583,11.632-1.175c1.946,0.672,3.915,1.285,5.895,1.848
			c2.083,0.593,3.262,1.648,3.807,4c0.833,3.595,1.565,7.321,3.755,10.466C213.485,155.533,213.788,155.839,214.428,156.597z
			 M320.433,176.013c-1.728,0-2.875-0.169-3.952,0.032c-2.961,0.552-6.001,0.961-8.813,1.975c-4.459,1.608-7.456,5.121-9.42,9.259
			c-1.63,3.434-1.876,7.201-0.05,10.784c0.872,1.71,1.369,1.883,3.117,1.271c2.635-0.922,4.987-2.275,7.14-4.124
			c2.958-2.54,5.022-5.766,7.038-8.955C317.409,183.222,318.659,179.769,320.433,176.013z M198.921,142.723
			c-1.879-2.464-2.97-1.834-4.647-0.21c-1.164,1.126-2.354,2.393-3.023,3.833c-2.231,4.801-2.191,9.723-0.121,14.603
			c0.251,0.593,0.68,1.11,1.074,1.739C194.617,159.311,198.362,148.055,198.921,142.723z M289.834,133.976
			c-3.641,2.331-11.589,16.105-12.461,21.593C285.172,154.498,293.146,139.186,289.834,133.976z M237.503,158.618
			c6.651-1.576,9.936-15.994,6.45-19.535C240.775,142.611,237.192,153.462,237.503,158.618z"/>
		<path style="fill:#331D1E;" d="M152.414,163.129c0.332-0.792,0.516-1.089,0.583-1.41c1.084-5.166,4.522-8.563,8.817-11.059
			c3.802-2.21,7.762-1.253,11.42,0.661c2.646,1.384,4.732,3.535,6.428,5.983c3.457,4.992,6.859,10.024,10.232,15.074
			c1.217,1.822,0.991,3.006-0.832,4.166c-2.722,1.731-5.723,2.136-8.707,0.91c-1.006-0.413-1.887-1.514-2.465-2.51
			c-1.608-2.775-2.962-5.696-4.538-8.49c-1.66-2.942-3.42-5.83-5.223-8.687c-0.587-0.929-1.448-1.686-2.311-2.664
			c-0.568,0.696-1.064,1.177-1.411,1.749c-2.231,3.674-3.9,7.561-4.046,11.929c-0.118,3.531-0.155,7.067-0.135,10.6
			c0.012,2.234-0.643,3.001-2.875,2.969c-2.833-0.04-5.134-0.843-6.773-3.495c-3.394-5.491-6.025-11.334-8.444-17.28
			c-3.963-9.74-6.868-19.823-9.424-30.009c-0.733-2.922,0.324-4.792,3.073-5.578c2.77-0.792,5.415,0.535,6.152,3.258
			c1.109,4.1,1.91,8.29,3.156,12.346c2.06,6.705,4.367,13.334,6.581,19.991C151.806,161.985,152.038,162.354,152.414,163.129z"/>
	</g>
	<g>
		<path style="fill:#331D1E;" d="M298.239,225.935c-2.332,0.136-4.309,0.241-6.284,0.37c-19.205,1.253-38.16-0.456-56.866-4.912
			c-2.081-0.496-4.045-1.494-6.046-2.303c-0.28-0.113-0.459-0.479-0.78-0.833c0.808-1.091,1.884-0.773,2.841-0.687
			c5.274,0.478,10.548,0.962,15.817,1.501c17.638,1.804,35.199,1.452,52.68-1.704c1.467-0.265,2.32-0.799,2.848-2.195
			c0.612-1.617,1.445-3.152,2.199-4.715c0.602-1.249,1.639-2.02,2.926-2.425c2.466-0.776,4.961-0.85,7.435-0.044
			c2.378,0.775,2.805,1.647,2.109,4.061c-0.087,0.301-0.134,0.614-0.274,1.278c1.413-0.368,2.574-0.625,3.707-0.973
			c13.124-4.029,25.954-8.821,38.444-14.543c4.884-2.237,9.949-4.081,14.953-6.05c2.519-0.991,5.088-1.135,7.58,0.117
			c2.248,1.13,2.597,2.707,0.879,4.564c-2.902,3.137-6.141,5.848-9.996,7.821c-8.524,4.365-17.441,7.755-26.481,10.839
			c-10.44,3.563-21.007,6.679-31.909,8.509c-1.55,0.26-2.335,1.034-2.957,2.454c-4.041,9.222-6.339,18.92-7.86,28.81
			c-0.737,4.793-1.1,9.647-1.517,14.483c-0.109,1.264,0.213,2.566,0.398,4.486c0.925-0.999,1.512-1.558,2.015-2.185
			c6.637-8.269,12.927-16.788,18.516-25.81c0.229-0.369,0.455-0.74,0.683-1.109c2.53-4.099,6.063-5.426,10.598-3.982
			c2.329,0.741,2.888,1.626,2.343,4.072c-2.924,13.128-5.859,26.254-8.832,39.371c-1.036,4.57-2.519,5.823-7.157,6.312
			c-0.514,0.054-1.044,0.06-1.558,0.007c-2.966-0.306-4.207-1.448-4.416-4.452c-0.15-2.157,0.021-4.337,0.044-6.506
			c0.009-0.847,0.001-1.694,0.001-2.923c-0.767,0.66-1.353,1.1-1.864,1.614c-4.114,4.148-9.113,5.503-14.793,4.708
			c-4.015-0.562-6.651-2.711-7.756-6.685c-0.9-3.237-1.09-6.547-0.612-9.818c1.909-13.062,4.199-26.05,8.455-38.602
			C297.917,227.374,298.007,226.865,298.239,225.935z"/>
		<path style="fill:#331D1E;" d="M198.503,264.016c-0.479,4.305-0.721,8.57,1.276,13.057c1.054-0.885,1.974-1.508,2.71-2.301
			c2.597-2.799,5.14-5.649,7.688-8.493c4.17-4.655,8.312-9.335,12.505-13.969c0.928-1.026,2.022-1.902,3.031-2.858
			c2.808-2.659,6.179-2.914,9.734-2.222c2.409,0.469,3.908,2.004,4.092,4.434c0.242,3.192,0.245,6.403,0.301,9.607
			c0.016,0.935-0.137,1.872,0.156,3.002c0.476-0.55,0.969-1.087,1.426-1.652c4.208-5.19,8.298-10.482,12.649-15.55
			c3.688-4.294,7.976-7.977,12.806-10.986c3.362-2.095,6.968-3.093,10.929-2.374c4.264,0.774,5.973,2.76,6.118,7.09
			c0.194,5.767-0.606,11.439-1.859,17.042c-2.452,10.959-6.257,21.47-10.53,31.84c-1.744,4.232-2.904,8.704-4.387,13.047
			c-0.23,0.675-0.621,1.503-1.186,1.823c-3.857,2.185-8.54-0.158-8.791-4.581c-0.34-6.007,0.247-11.996,2.101-17.743
			c1.677-5.198,3.711-10.28,5.574-15.419c2.813-7.757,5.371-15.588,6.799-23.741c0.059-0.334,0.067-0.677,0.156-1.615
			c-1.044,0.827-1.812,1.297-2.406,1.93c-4.094,4.365-8.34,8.607-12.176,13.191c-5.403,6.455-10.47,13.191-15.736,19.763
			c-1.298,1.62-2.83,3.051-4.212,4.607c-0.443,0.498-0.974,1.082-1.071,1.69c-0.232,1.448-1.165,1.772-2.374,1.921
			c-3.718,0.46-5.813-0.966-6.476-4.687c-0.796-4.47-0.925-8.958-0.035-13.457c0.43-2.173,0.643-4.39,0.506-6.789
			c-0.517,0.519-1.074,1.004-1.544,1.562c-3.132,3.719-6.115,7.574-9.408,11.143c-2.576,2.792-5.344,5.48-8.363,7.77
			c-3.779,2.867-8.239,3.459-12.89,2.487c-3.365-0.704-5.499-2.74-6.663-5.932c-1.351-3.702-1.306-7.532-0.874-11.328
			c0.721-6.332,2.403-12.434,5.22-18.18c1.501-3.06,3.375-5.874,5.947-8.159c3.429-3.045,7.407-4.047,11.862-3.017
			c3.817,0.883,5.807,3.557,5.253,7.444c-0.289,2.025-0.874,4.114-1.813,5.921c-3.342,6.433-8.222,11.343-15.012,14.179
			C199.224,263.644,198.925,263.809,198.503,264.016z M206.473,242.243c-3.486,4.512-5.176,9.195-6.556,14.548
			C204.204,253.042,206.994,246.918,206.473,242.243z"/>
		<path style="fill:#331D1E;" d="M164.712,282.963c-3.977,0.977-7.66,1.224-11.265-0.273c-3.674-1.526-5.242-4.793-6.638-8.617
			c-0.701,1.115-1.159,1.916-1.686,2.669c-1.639,2.343-3.143,4.807-4.997,6.969c-2.976,3.47-6.891,4.417-11.328,3.551
			c-2.483-0.485-4.415-1.774-5.391-4.058c-0.876-2.052-1.699-4.235-1.947-6.429c-1.387-12.247,3.087-22.167,12.686-29.671
			c4.383-3.427,9.375-3.939,14.329-0.884c0.899,0.554,1.638,0.335,2.462,0.117c1.983-0.525,3.955-0.485,5.907,0.119
			c2.336,0.723,2.736,1.437,2.379,3.826c-0.615,4.117-1.419,8.225-1.706,12.367c-0.244,3.523-0.014,7.102,0.291,10.632
			c0.144,1.66,0.958,3.262,1.634,5.422c1.557-1.373,2.814-2.285,3.797-3.432c0.488-0.569,0.63-1.564,0.66-2.377
			c0.242-6.677,0.208-13.37,0.669-20.03c0.703-10.141,2.08-20.203,5.168-29.945c1.366-4.31,2.973-8.52,5.665-12.23
			c3.107-4.283,7.343-5.95,12.492-5.346c4.681,0.55,7.453,3.436,8.815,7.769c1.388,4.416,1.226,8.925,0.387,13.405
			c-1.95,10.406-5.841,20.143-10.432,29.621c-2.994,6.182-6.371,12.141-10.589,17.596c-0.493,0.637-0.881,1.532-0.91,2.323
			c-0.174,4.77-0.267,9.544-0.294,14.318c-0.006,1.092,0.308,2.197,0.554,3.277c0.292,1.283-0.039,1.903-1.353,2.296
			c-2.667,0.797-5.122-0.184-6.183-2.864c-1.114-2.814-1.871-5.769-2.779-8.664C164.982,284.018,164.886,283.606,164.712,282.963z
			 M175.866,257.371c1.003-1.896,1.886-3.477,2.688-5.099c4.276-8.645,7.888-17.535,9.672-27.066
			c0.754-4.029,1.046-8.086-0.162-12.096c-0.444-1.474-0.881-2.985-2.626-4.055c-0.938,1.271-2.092,2.391-2.703,3.754
			c-1.342,2.991-2.666,6.034-3.544,9.182c-3.147,11.284-3.502,22.901-3.76,34.515C175.428,256.645,175.567,256.788,175.866,257.371z
			 M142.292,248.625c-9.222,6.119-14.953,24.099-10.174,31.988c0.628-0.92,1.233-1.746,1.775-2.611
			c4.29-6.852,7.799-14.095,11.127-21.458c1.352-2.993,0.566-4.893-1.461-6.838C143.186,249.348,142.773,249.033,142.292,248.625z"
			/>
		<path style="fill:#331D1E;" d="M432.484,269.155c-0.632-5.841-1.262-11.669-1.932-17.86c-0.59,0.637-1.015,1.009-1.336,1.456
			c-6.134,8.528-12.188,17.113-18.416,25.571c-2.149,2.918-4.557,5.694-7.151,8.223c-2.738,2.669-6.234,3.226-9.95,2.346
			c-5.676-1.345-9.029-5.239-9.747-11.417c-0.435-3.741-0.139-7.459,0.581-11.141c1.188-6.072,3.013-11.943,5.726-17.517
			c2.52-5.177,5.984-9.54,10.935-12.622c2.851-1.775,5.815-2.1,8.959-0.885c3.127,1.208,4.74,3.444,4.633,6.783
			c-0.149,4.654-2.386,8.269-5.93,11.115c-3.478,2.793-7.554,4.192-11.89,4.773c-3.152,6.173-4.221,20.243-1.811,24.732
			c0.604-0.527,1.227-0.985,1.746-1.54c1.364-1.457,2.794-2.871,4.003-4.451c8.969-11.718,17.891-23.471,26.826-35.215
			c0.63-0.829,1.271-1.652,1.854-2.514c1.425-2.107,3.357-2.164,5.532-1.48c2.527,0.794,3.127,1.553,3.467,4.236
			c0.874,6.883,1.787,13.762,2.691,20.641c0.033,0.252,0.142,0.495,0.282,0.965c0.634-0.374,1.235-0.662,1.76-1.051
			c4.547-3.366,7.991-7.615,10.625-12.641c1.436-2.739,3.339-5.258,5.223-7.731c1.503-1.973,3.679-2.219,5.81-1.05
			c1.163,0.639,1.783,1.551,1.863,2.905c0.235,3.979-0.289,7.727-2.394,11.261c-2.444,4.104-5.451,7.655-9.392,10.31
			c-3.88,2.614-7.921,4.99-12.155,7.635c0.064,0.83,0.161,1.94,0.235,3.052c0.307,4.608,0.384,9.211-0.902,13.704
			c-1.076,3.758-2.951,6.981-7.064,7.967c-5.365,1.285-10.406,0.301-14.716-3.188c-3.703-2.998-4.651-8.579-2.439-12.794
			c1.568-2.987,3.928-5.296,6.622-7.245C427.089,272.708,429.648,271.072,432.484,269.155z M427.311,291.851
			c3.616-3.625,4.521-7.992,4.967-13.058c-2.855,1.761-4.785,3.696-5.967,6.273C425.253,287.372,425.537,289.58,427.311,291.851z
			 M399.096,251.359c4.212-2.07,7.291-6.757,6.99-10.55C402.899,243.79,400.881,247.268,399.096,251.359z"/>
		<path style="fill:#331D1E;" d="M91.595,284.516c0.512-1.454,0.838-2.306,1.114-3.173c3.632-11.414,7.166-22.859,10.908-34.237
			c3.899-11.859,9.536-22.903,16.254-33.405c0.467-0.73,0.974-1.437,1.49-2.135c1.006-1.36,2.427-1.928,4.062-1.997
			c2.932-0.124,4.148,1.167,3.362,3.964c-1.572,5.595-2.974,11.28-5.104,16.668c-6.262,15.844-11.387,32.059-16.461,48.299
			c-1.242,3.975-2.656,7.897-4.051,11.821c-0.493,1.387-1.114,2.735-1.769,4.055c-2.715,5.474-6.863,7.413-12.858,6.106
			c-2.545-0.555-4.551-1.844-5.489-4.314c-1.723-4.537-3.608-9.044-4.893-13.709c-3.741-13.58-6.156-27.433-7.797-41.418
			c-0.151-1.289-0.195-2.603-0.147-3.9c0.064-1.733,0.639-2.291,2.329-2.56c2.396-0.38,4.085,0.313,5.187,2.532
			c0.96,1.933,1.776,3.975,2.356,6.052c1.983,7.105,3.815,14.252,5.74,21.373c1.54,5.698,3.121,11.384,4.705,17.069
			C90.751,282.397,91.092,283.153,91.595,284.516z"/>
		<path style="fill:#331D1E;" d="M354.643,250.417c1.038-1.263,2.066-2.535,3.117-3.787c2.91-3.468,6.051-6.7,9.754-9.337
			c3.041-2.165,6.359-3.56,10.175-3.377c0.944,0.045,1.901,0.193,2.814,0.436c4.297,1.141,6.022,3.244,5.718,7.696
			c-0.224,3.269-0.754,6.561-1.563,9.737c-2.655,10.42-5.514,20.787-8.264,31.183c-0.843,3.185-1.642,6.385-2.359,9.6
			c-0.406,1.82-1.463,2.881-3.185,3.406c-2.48,0.756-4.966,0.792-7.426-0.024c-2.238-0.743-2.865-1.575-2.385-3.881
			c0.616-2.963,1.412-5.902,2.345-8.782c3.925-12.127,7.958-24.219,11.882-36.346c0.79-2.443,1.274-4.984,2.046-8.066
			c-1.168,0.574-1.841,0.747-2.304,1.157c-2.851,2.527-5.834,4.939-8.439,7.704c-6.05,6.421-10.737,13.83-14.903,21.574
			c-1.849,3.438-3.623,6.916-5.465,10.358c-1.676,3.131-5.546,3.723-8.281,1.337c-1.124-0.98-0.92-2.183-0.654-3.367
			c0.951-4.229,1.9-8.459,2.947-12.664c1.95-7.825,3.967-15.633,5.959-23.448c0.523-2.051,1.29-3.934,3.095-5.266
			c1.245-0.919,2.568-1.4,4.106-1.365c2.976,0.068,4.55,1.819,3.961,4.749c-0.391,1.943-1.163,3.809-1.766,5.709
			c-0.516,1.627-1.035,3.254-1.552,4.881C354.224,250.295,354.434,250.356,354.643,250.417z"/>
		<path style="fill:#331D1E;" d="M419.108,227.525c0.333-1.77,0.509-3.508,1.009-5.146c0.532-1.742,1.39-2.12,3.198-1.879
			c2.588,0.344,4.428,2.498,4.198,5.385c-0.17,2.141-0.729,4.263-1.253,6.359c-0.305,1.219-0.991,2.195-2.503,2.232
			c-1.769,0.043-3.305-0.611-3.789-2.142C419.481,230.794,419.379,229.131,419.108,227.525z"/>
		<path style="fill:#331D1E;" d="M337.541,222.028c1.616,0.422,3.43,0.685,5.06,1.378c1.862,0.792,2.098,2.023,1.088,3.788
			c-0.89,1.555-2.128,2.678-3.906,3.171c-2.041,0.566-4.076,0.661-6.129,0.122c-1.635-0.429-3.191-1.004-3.526-2.946
			c-0.243-1.411,1.281-3.882,2.941-4.497C334.417,222.544,335.893,222.387,337.541,222.028z"/>
	</g>
	<g>
		<path style="fill:#331D1E;" d="M97.208,149.525c2.009,10.328,5.797,19.984,11.851,28.74c-0.482-2.776-1.098-5.537-1.419-8.331
			c-0.731-6.367,0.631-12.433,2.986-18.314c0.612-1.53,1.251-3.053,1.96-4.54c0.428-0.898,0.698-2.201,2.029-2.038
			c1.278,0.156,1.392,1.373,1.554,2.412c0.282,1.8,0.626,3.594,0.819,5.404c0.323,3.019,0.559,6.048,0.81,9.074
			c0.29,3.495-0.108,6.928-0.92,10.33c-0.423,1.772-0.808,3.555-1.14,5.346c-0.699,3.78-0.22,7.442,1.342,10.938
			c0.304,0.681,0.862,1.308,1.44,1.798c3.11,2.636,6.261,5.224,9.405,7.82c0.4,0.331,0.956,0.53,1.237,0.931
			c0.25,0.357,0.432,1.034,0.253,1.345c-0.185,0.322-0.859,0.546-1.284,0.498c-0.474-0.053-0.937-0.42-1.354-0.721
			c-4.66-3.359-9.146-6.931-12.877-11.331c-4.232-4.991-9.431-7.998-16.037-8.636c-6.056-0.586-11.364-2.956-15.744-7.301
			c-3.152-3.127-5.272-6.874-6.846-10.957c-0.76-1.973-0.007-2.923,2.039-2.548c1.436,0.263,2.853,0.758,4.206,1.324
			c7.12,2.977,13.358,7.356,19.257,12.259c0.868,0.721,1.724,1.455,2.598,2.169c0.103,0.084,0.281,0.076,0.775,0.195
			c-4.366-8.081-7.498-16.385-9.222-25.243c-6.222-1.186-9.152-5.9-11.959-11.035c-1.025,0.707-2.014,1.364-2.976,2.06
			c-1.669,1.207-3.549,1.843-5.578,1.94c-2.601,0.124-5.208,0.185-7.812,0.181c-3.376-0.005-6.216-1.27-8.597-3.703
			c-1.815-1.855-3.729-3.622-5.681-5.334c-2.825-2.479-4.484-5.465-4.488-9.293c-0.002-2.365,0.714-4.434,2.427-6.172
			c-0.534-1.566-1.118-3.09-1.576-4.651c-2.041-6.958,3.306-13.669,9.024-15.143c2.824-0.728,5.34-0.232,7.414,1.923
			c0.357,0.371,0.658,0.797,1.316,1.604c0.27-1.169,0.447-1.774,0.545-2.391c0.491-3.066,1.647-5.851,3.625-8.243
			c2.879-3.482,6.55-4.8,10.929-3.505c2.723,0.805,5.364,1.886,8.117,2.87c0.453-0.829,0.879-1.673,1.364-2.482
			c1.933-3.219,4.547-5.638,8.083-7.054c4.99-1.998,11.819,0.257,12.868,6.003c0.056,0.308,0.302,0.58,0.532,1.002
			c0.722-0.535,1.317-1.006,1.942-1.433c1.836-1.254,3.824-1.987,6.097-1.916c3.222,0.101,5.446,1.633,6.6,4.597
			c1.225,3.148,2.336,6.34,3.468,9.524c0.926,2.604,1.043,5.3,0.477,7.969c-1.846,8.691-6.447,15.251-14.839,18.799
			c-2.476,1.047-4.931,2.147-7.422,3.157c-1.46,0.592-1.935,1.538-2.116,3.143c-0.317,2.825-0.903,5.663-1.76,8.374
			C103.628,145.107,102.249,146.446,97.208,149.525z M95.402,123.714c2.585-0.255,5.003-0.01,6.985-0.825
			c1.997-0.821,3.617-2.634,5.293-4.134c0.817-0.731,1.55-1.659,2.037-2.639c1.699-3.415,3.239-6.909,4.907-10.34
			c1.816-3.737,1.647-7.162-1.25-10.336c-1.78-1.951-2.915-4.254-3.611-6.832c-1.145-4.241-4.81-6.16-9.068-4.944
			c-2.608,0.745-4.655,2.31-6.316,4.377c-1.713,2.133-3.302,4.349-1.8,7.306c0.111,0.219,0.108,0.51,0.114,0.769
			c0.081,3.268,1.062,6.288,2.339,9.269c1.896,4.427,2.359,9.031,1.287,13.763C95.993,120.578,95.739,122.022,95.402,123.714z
			 M87.23,126.872c-1.161-3.063-3.425-4.792-5.941-6.202c-2.689-1.506-4.362-3.659-4.75-6.721c-0.367-2.893-1.954-4.756-4.652-5.686
			c-3.262-1.125-6.093-2.831-8.302-5.552c-1.106-1.363-2.638-1.868-4.426-1.636c-5.109,0.663-9.401,6.546-8.408,11.606
			c0.838,4.268,3.054,7.687,6.496,10.316c3.689,2.819,7.843,4.726,12.208,6.235c3.762,1.301,7.495,2.683,11.243,4.022
			c0.528,0.189,1.071,0.337,1.742,0.546C82.926,130.68,84.691,128.615,87.23,126.872z M89.284,125.53
			c2.903-0.081,4.002-1.414,4.103-3.764c0.029-0.684,0.223-1.371,0.409-2.038c1.336-4.799,0.864-9.445-1.136-13.97
			c-1.236-2.796-2.2-5.659-2.196-8.767c0.003-1.649-0.768-2.862-2.265-3.486c-2.473-1.031-4.96-2.042-7.492-2.916
			c-3.306-1.141-5.955,0.16-8.131,2.599c-1.901,2.131-2.888,4.729-3.343,7.513c-0.485,2.96,0.116,3.93,2.948,5.106
			c2.358,0.98,4.631,2.109,5.721,4.611c0.481,1.103,0.815,2.297,1.024,3.483c0.339,1.928,1.26,3.366,2.961,4.349
			C85.003,120.049,87.825,122.174,89.284,125.53z M113.422,91.596c1.012,1.354,1.949,2.589,2.864,3.838
			c1.866,2.547,2.364,5.364,1.473,8.375c-0.415,1.403-0.98,2.772-1.586,4.106c-1.325,2.915-2.765,5.778-4.068,8.703
			c-0.759,1.706-1.786,3.14-3.266,4.285c-1.285,0.993-2.503,2.073-3.672,3.049c0.643,1.393,1.174,2.542,1.709,3.699
			c2.597-1.089,5.048-2.177,7.544-3.151c7.94-3.097,12.472-8.983,14.311-17.174c0.529-2.359,0.506-4.646-0.287-6.908
			c-1.115-3.182-2.24-6.361-3.455-9.505c-1.018-2.634-3.294-3.709-6.081-3.068C116.699,88.353,114.965,89.541,113.422,91.596z
			 M82,136.559c-1.303-0.629-2.349-1.241-3.469-1.652c-3.171-1.164-6.371-2.251-9.562-3.36c-6.373-2.214-12.365-5.053-16.91-10.278
			c-0.1-0.115-0.308-0.136-0.758-0.32c-0.334,0.96-0.816,1.879-0.964,2.848c-0.529,3.471,0.783,6.247,3.365,8.548
			c2.131,1.899,4.212,3.86,6.244,5.865c1.834,1.809,4.022,2.686,6.549,2.728c1.733,0.029,3.479-0.204,5.2-0.075
			C75.721,141.162,78.939,139.609,82,136.559z"/>
		<path style="fill:#F67B58;" d="M95.402,123.714c0.337-1.691,0.591-3.136,0.915-4.565c1.072-4.732,0.609-9.336-1.287-13.763
			c-1.277-2.981-2.258-6.002-2.339-9.269c-0.006-0.259-0.003-0.549-0.114-0.769c-1.502-2.958,0.088-5.174,1.8-7.306
			c1.661-2.068,3.708-3.632,6.316-4.377c4.258-1.217,7.923,0.702,9.068,4.944c0.696,2.578,1.831,4.881,3.611,6.832
			c2.897,3.174,3.067,6.599,1.25,10.336c-1.668,3.431-3.208,6.925-4.907,10.34c-0.488,0.98-1.22,1.907-2.037,2.639
			c-1.676,1.5-3.295,3.313-5.293,4.134C100.405,123.703,97.987,123.458,95.402,123.714z"/>
		<path style="fill:#F67B58;" d="M87.23,126.872c-2.539,1.743-4.304,3.808-4.791,6.929c-0.67-0.209-1.213-0.357-1.742-0.546
			c-3.748-1.339-7.482-2.721-11.243-4.022c-4.366-1.509-8.519-3.416-12.208-6.235c-3.442-2.63-5.658-6.049-6.496-10.316
			c-0.993-5.06,3.299-10.943,8.408-11.606c1.788-0.232,3.32,0.273,4.426,1.636c2.208,2.721,5.039,4.427,8.302,5.552
			c2.698,0.93,4.285,2.793,4.652,5.686c0.389,3.062,2.062,5.215,4.75,6.721C83.805,122.08,86.069,123.809,87.23,126.872z"/>
		<path style="fill:#F67B58;" d="M89.284,125.53c-1.46-3.355-4.281-5.48-7.397-7.28c-1.701-0.982-2.622-2.42-2.961-4.349
			c-0.209-1.187-0.543-2.381-1.024-3.483c-1.091-2.502-3.363-3.631-5.721-4.611c-2.831-1.176-3.432-2.146-2.948-5.106
			c0.456-2.784,1.442-5.382,3.343-7.513c2.176-2.439,4.825-3.74,8.131-2.599c2.532,0.873,5.019,1.884,7.492,2.916
			c1.497,0.624,2.268,1.837,2.265,3.486c-0.005,3.108,0.96,5.971,2.196,8.767c2,4.525,2.472,9.172,1.136,13.97
			c-0.186,0.667-0.38,1.354-0.409,2.038C93.287,124.116,92.187,125.449,89.284,125.53z"/>
		<path style="fill:#F67B58;" d="M113.422,91.596c1.543-2.055,3.278-3.243,5.486-3.751c2.787-0.641,5.063,0.435,6.081,3.068
			c1.215,3.144,2.34,6.324,3.455,9.505c0.793,2.262,0.816,4.549,0.287,6.908c-1.838,8.191-6.37,14.077-14.311,17.174
			c-2.496,0.974-4.947,2.062-7.544,3.151c-0.535-1.157-1.065-2.307-1.709-3.699c1.169-0.976,2.387-2.056,3.672-3.049
			c1.48-1.145,2.507-2.579,3.266-4.285c1.302-2.925,2.743-5.788,4.068-8.703c0.606-1.334,1.171-2.703,1.586-4.106
			c0.891-3.01,0.393-5.828-1.473-8.375C115.37,94.185,114.433,92.951,113.422,91.596z"/>
		<path style="fill:#F67B58;" d="M82,136.559c-3.062,3.051-6.28,4.603-10.304,4.303c-1.722-0.128-3.467,0.104-5.2,0.075
			c-2.527-0.042-4.715-0.919-6.549-2.728c-2.033-2.005-4.113-3.965-6.244-5.865c-2.582-2.301-3.894-5.077-3.365-8.548
			c0.148-0.97,0.629-1.889,0.964-2.848c0.45,0.185,0.658,0.205,0.758,0.32c4.545,5.225,10.537,8.063,16.91,10.278
			c3.191,1.109,6.391,2.195,9.562,3.36C79.651,135.318,80.697,135.93,82,136.559z"/>
	</g>
	<g>
		<path style="fill:#331D1E;" d="M405.718,160.467c-2.31-0.503-4.565-1.169-6.867-1.463c-6.661-0.85-13.747-11.412-11.245-19.385
			c0.489-1.558,1.784-2.863,2.93-4.628c-0.216-1.107-0.748-2.704-0.787-4.313c-0.047-1.968,0.003-4.041,0.564-5.902
			c1.811-6.01,8.558-8.152,13.651-4.489c0.487,0.35,0.947,0.736,1.521,1.184c0.556-0.639,1.046-1.219,1.553-1.783
			c2.589-2.877,5.735-4.375,9.688-4.113c3.837,0.254,6.574,1.966,8.014,5.599c0.218,0.551,0.466,1.09,0.642,1.498
			c2.447-0.899,4.716-2.039,7.118-2.519c1.883-0.376,4.002-0.236,5.889,0.21c3.606,0.853,5.58,3.493,5.612,7.177
			c0.02,2.39,0.37,4.677,1.34,6.843c1.813,4.048,1.134,7.58-1.985,10.715c-1.307,1.314-2.284,2.876-2.554,4.745
			c-0.596,4.127-3.636,7.815-9.863,8.421c-1.276,0.124-2.574,0.018-3.984,0.018c-1.497,7.117-4.71,12.53-12.624,14.009
			c-1.094,11.431-5.792,21.491-13.174,30.607c4.072-1.271,7.724-2.595,11.472-3.539c5.93-1.493,11.987-1.895,18.093-1.396
			c0.173,0.014,0.349,0.009,0.52,0.037c1.093,0.179,2.423,0.097,2.709,1.525c0.255,1.278-0.894,1.749-1.731,2.336
			c-8.873,6.222-18.703,9.391-29.567,9.192c-1.469-0.027-2.941-0.212-4.4-0.412c-2.437-0.333-4.487,0.027-6.432,1.876
			c-2.054,1.953-4.56,3.436-6.898,5.083c-0.483,0.34-1.086,0.64-1.654,0.682c-0.405,0.03-0.968-0.314-1.22-0.665
			c-0.149-0.208,0.061-0.85,0.305-1.12c0.335-0.372,0.848-0.588,1.297-0.85c6.407-3.744,11.429-9.007,16.043-14.699
			c1.441-1.778,1.461-3.081,0.127-4.984c-0.892-1.272-1.973-2.42-3.041-3.556c-4.154-4.416-6.873-9.515-7.877-15.553
			c-0.644-3.871-0.304-7.615,0.812-11.315c0.646-2.142,1.834-2.487,3.379-0.938c1.093,1.096,2.094,2.342,2.885,3.67
			c4.607,7.742,7.128,16.144,7.736,25.127c0.021,0.311,0.094,0.618,0.217,1.403c0.695-1.05,1.19-1.716,1.6-2.431
			c3.366-5.874,5.423-12.188,6.302-18.894c0.115-0.877,0.247-1.674-0.597-2.35c-3.07-2.459-4.628-5.771-5.261-9.582
			C405.918,161.206,405.817,160.879,405.718,160.467z M414.629,150.074c1.081-5.049,0.642-10.081,0.518-15.088
			c-0.045-1.829-1.149-3.252-2.721-4.207c-1.332-0.809-2.822-1.4-4.038-2.349c-1.402-1.093-2.851-2.298-3.797-3.765
			c-1.756-2.725-3.873-4.088-6.816-3.753c-2.786,0.317-4.775,2.283-5.524,5.454c-0.938,3.971-0.034,7.708,2.17,10.921
			c3.846,5.607,8.035,10.978,12.101,16.478C409.034,151.341,409.034,151.341,414.629,150.074z M426.765,125.303
			c3.09,2.892,3.489,6.423,3.029,10.181c-0.168,1.375-0.367,2.749-0.471,4.13c-0.16,2.131-0.845,4.061-2.058,5.807
			c-1.274,1.833-2.566,3.654-3.646,5.189c1.336,1.737,2.605,3.387,4.149,5.396c1.156-0.072,2.825,0.01,4.411-0.314
			c2.98-0.608,5.388-2.157,6.046-5.345c0.62-3.001,2.015-5.495,4.083-7.684c1.805-1.91,2.075-4.095,1.137-6.497
			c-1.078-2.761-1.798-5.57-1.717-8.594c0.065-2.434-1.305-4.203-3.593-4.867C434.043,121.52,430.318,122.418,426.765,125.303z
			 M407.16,124.039c1.106,1.701,1.026,1.876,4.134,3.3c5.07,2.322,6.819,6.266,6.42,11.572c-0.259,3.443-0.323,6.902-0.461,10.354
			c-0.01,0.246,0.093,0.496,0.172,0.882c1.001,0.137,2.014,0.275,3.005,0.41c0.973-1.163,1.926-2.169,2.727-3.284
			c1.764-2.456,3.676-4.848,3.908-8.066c0.112-1.553,0.372-3.095,0.512-4.646c0.215-2.384,0.064-4.717-1.601-6.628
			c-1.56-1.79-2.716-3.77-3.487-6.024c-0.693-2.024-2.195-3.226-4.289-3.776C413.665,116.94,409.203,119.3,407.16,124.039z
			 M405.498,158.1c-0.463-2.637-1.657-4.232-2.866-5.811c-1.214-1.585-2.466-3.14-3.698-4.711c-1.286-1.639-2.601-3.256-3.841-4.928
			c-1.16-1.564-2.239-3.187-3.675-5.245c-0.741,1.419-1.39,2.33-1.695,3.344c-0.266,0.888-0.244,1.899-0.18,2.844
			c0.37,5.515,2.896,9.857,7.793,12.365C399.643,157.14,402.453,157.34,405.498,158.1z"/>
		<path style="fill:#F8BCCD;" d="M414.629,150.074c-5.595,1.266-5.595,1.266-8.107,3.691c-4.067-5.5-8.255-10.872-12.101-16.478
			c-2.204-3.213-3.108-6.95-2.17-10.921c0.749-3.171,2.737-5.137,5.524-5.454c2.944-0.335,5.06,1.028,6.816,3.753
			c0.946,1.467,2.395,2.672,3.797,3.765c1.216,0.949,2.706,1.539,4.038,2.349c1.573,0.955,2.676,2.378,2.721,4.207
			C415.271,139.993,415.709,145.026,414.629,150.074z"/>
		<path style="fill:#F8BCCD;" d="M426.765,125.303c3.553-2.886,7.278-3.783,11.369-2.597c2.289,0.664,3.658,2.433,3.593,4.867
			c-0.081,3.024,0.639,5.833,1.717,8.594c0.938,2.403,0.668,4.588-1.137,6.497c-2.068,2.188-3.463,4.682-4.083,7.684
			c-0.658,3.188-3.067,4.736-6.046,5.345c-1.586,0.324-3.254,0.242-4.411,0.314c-1.545-2.009-2.814-3.659-4.149-5.396
			c1.08-1.536,2.372-3.356,3.646-5.189c1.213-1.746,1.898-3.675,2.058-5.807c0.103-1.381,0.303-2.754,0.471-4.13
			C430.254,131.726,429.855,128.195,426.765,125.303z"/>
		<path style="fill:#F8BCCD;" d="M407.16,124.039c2.042-4.739,6.505-7.099,11.04-5.908c2.094,0.55,3.596,1.752,4.289,3.776
			c0.771,2.254,1.927,4.234,3.487,6.024c1.665,1.911,1.816,4.244,1.601,6.628c-0.14,1.552-0.4,3.093-0.512,4.646
			c-0.232,3.218-2.143,5.611-3.908,8.066c-0.801,1.115-1.754,2.121-2.727,3.284c-0.991-0.135-2.004-0.273-3.005-0.41
			c-0.079-0.386-0.182-0.636-0.172-0.882c0.138-3.452,0.202-6.91,0.461-10.354c0.399-5.305-1.35-9.25-6.42-11.572
			C408.186,125.915,408.266,125.74,407.16,124.039z"/>
		<path style="fill:#F8BCCD;" d="M405.498,158.1c-3.045-0.76-5.855-0.96-8.162-2.142c-4.897-2.507-7.423-6.849-7.793-12.365
			c-0.063-0.945-0.086-1.956,0.18-2.844c0.305-1.014,0.953-1.925,1.695-3.344c1.436,2.057,2.515,3.681,3.675,5.245
			c1.241,1.672,2.556,3.29,3.841,4.928c1.232,1.571,2.484,3.126,3.698,4.711C403.841,153.868,405.035,155.463,405.498,158.1z"/>
	</g>
	<g>
		<path style="fill:#331D1E;" d="M414.033,348.898c1.167,3.555,1.164,6.904,0.171,10.222c-1.485,4.959-4.594,8.218-9.81,9.359
			c-2.093,0.458-4.104,1.289-6.352,2.014c0.319,0.784,0.485,1.344,0.759,1.844c2.566,4.679-2.126,10.778-7.102,10.566
			c-2.596-0.11-4.929-0.941-7.173-2.102c-1.383-0.716-2.681-1.595-4.281-2.56c-0.562,0.584-1.192,1.251-1.835,1.905
			c-3.557,3.616-7.85,3.74-11.479,0.207c-1.106-1.076-2.067-2.357-2.863-3.683c-1.754-2.919-4.144-5.099-7.118-6.688
			c-0.383-0.204-0.76-0.419-1.133-0.64c-4.715-2.796-6.631-6.768-5.368-12.07c0.676-2.838,1.868-5.572,3.022-8.27
			c0.676-1.581,1.65-3.059,2.641-4.477c1.746-2.496,2.8-4.939,1.863-8.188c-0.815-2.826-0.334-3.942,1.114-7.931
			c-2.55-2.436-5.217-4.984-7.884-7.531c-0.155,0.109-0.31,0.218-0.465,0.328c0.309,0.857,0.583,1.727,0.931,2.568
			c2.749,6.652,1.958,12.889-2.165,18.744c-0.249,0.353-0.477,0.743-0.796,1.022c-0.971,0.849-2.078,0.556-2.357-0.695
			c-0.244-1.092-0.404-2.239-0.362-3.353c0.141-3.726,0.434-7.446,0.577-11.171c0.069-1.807,0.077-3.638-0.135-5.429
			c-0.589-4.992-3.255-8.303-8.218-9.571c-2.267-0.579-4.55-1.094-6.827-1.63c-0.419-0.099-0.989-0.017-1.241-0.267
			c-0.439-0.436-0.685-1.066-1.012-1.615c0.487-0.274,1.002-0.822,1.454-0.773c1.629,0.174,3.237,0.549,4.852,0.849
			c3.143,0.585,6.276,1.236,9.433,1.733c1.833,0.288,3.598-0.151,5.31-0.916c4.524-2.021,9.16-3.761,14.072-4.545
			c2.301-0.367,4.659-0.475,6.992-0.482c0.714-0.002,1.855,0.587,2.029,1.145c0.179,0.576-0.385,1.732-0.968,2.133
			c-1.99,1.366-4.041,2.713-6.234,3.701c-5.054,2.278-10.44,3.127-15.967,3.143c-0.339,0.001-0.678,0.036-1.275,0.07
			c4.171,3.74,8.183,7.336,12.421,11.135c2.806-1.515,6.011-1.314,9.352-0.117c0.725-1.118,1.328-2.265,2.131-3.249
			c3.572-4.378,8.005-7.678,13.129-10.01c2.918-1.328,5.755-0.951,8.368,0.938c0.281,0.203,0.593,0.377,0.834,0.621
			c2.735,2.756,5.968,4.301,9.904,4.575c2.86,0.199,4.939,1.956,6.546,4.262c2.033,2.916,4.032,5.856,6.103,8.744
			c1.623,2.263,2.095,4.662,1.426,7.386C418.226,343.509,416.988,346.593,414.033,348.898z M397.076,367.995
			c0.699-0.073,1.214-0.05,1.681-0.189c1.988-0.593,3.94-1.319,5.946-1.839c2.886-0.747,4.907-2.493,6.281-5.059
			c1.127-2.106,1.587-4.385,1.66-6.759c0.084-2.709-0.845-5.001-3.076-6.54c-3.851-2.657-7.746-5.299-12.273-6.698
			c-2.905-0.898-5.343-2.434-7.414-4.616c-1.015-1.07-1.983-2.193-3.075-3.178c-0.957-0.863-1.977-1.72-3.11-2.311
			c-2.489-1.299-6.598-0.606-7.902,1.328c-1.047,1.551-1.88,3.247-2.781,4.83c0.095,0.163,0.12,0.267,0.184,0.306
			c0.294,0.177,0.586,0.369,0.902,0.497c3.007,1.22,4.901,3.484,6.062,6.437c0.539,1.371,1.109,2.733,1.576,4.13
			c1.162,3.481,3.427,5.934,6.665,7.624c1.76,0.918,3.435,2.022,5.069,3.158c1.882,1.308,2.897,3.16,3.082,5.477
			C396.642,365.693,396.885,366.783,397.076,367.995z M412.661,346.698c4.628-3.345,5.541-9.318,2.066-13.887
			c-1.466-1.928-2.927-3.883-4.147-5.968c-1.741-2.977-4.005-4.921-7.604-5.078c-3.271-0.143-5.965-1.641-8.301-3.858
			c-0.314-0.298-0.656-0.565-0.985-0.848c-2.448-2.103-5.068-2.393-7.928-0.849c-3.764,2.033-7.242,4.454-10.126,7.622
			c-1.082,1.189-1.87,2.647-2.86,4.081c0.816,0.661,1.404,1.136,2.005,1.622c0.498-0.201,0.898-0.346,1.285-0.521
			c4.739-2.137,8.072-1.62,11.879,1.933c1.266,1.181,2.441,2.461,3.627,3.724c1.821,1.94,4.003,3.223,6.537,4.069
			c1.954,0.653,3.865,1.529,5.661,2.543C406.771,342.978,409.664,344.86,412.661,346.698z M364.942,344.746
			c-1.973-0.462-3.57-0.835-5.388-1.26c-2.577,3.877-5.352,8.072-6.609,13.025c-1.357,5.345,0.111,8.877,4.602,11.125
			c3.734,1.87,6.65,4.608,8.806,8.235c0.819,1.378,2.006,2.639,3.28,3.622c2.091,1.613,4.496,1.454,6.4-0.349
			c1.312-1.242,2.451-2.692,3.527-4.152c1.432-1.945,1.801-4.207,0.896-6.422c-0.844-2.066-1.859-4.124-3.16-5.926
			c-2.332-3.231-4.926-6.273-7.426-9.382C367.74,350.611,365.865,347.816,364.942,344.746z M366.958,342.766
			c0.311,2.214,1.251,4.159,2.489,5.935c1.337,1.918,2.823,3.731,4.259,5.579c2.127,2.738,4.383,5.383,6.372,8.217
			c2.932,4.176,4.418,8.654,1.673,13.712c2.89,2.203,5.829,3.85,9.398,4.305c4.004,0.51,7.448-4.209,5.326-7.679
			c-1.422-2.327-2.027-4.958-2.183-7.681c-0.112-1.965-1.03-3.473-2.669-4.516c-1.606-1.023-3.217-2.049-4.89-2.953
			c-3.269-1.767-5.584-4.337-6.913-7.803c-0.62-1.618-1.253-3.232-1.857-4.856c-1.23-3.303-3.672-5.098-7.043-5.816
			C369.578,340.413,368.297,341.564,366.958,342.766z"/>
		<path style="fill:#F67B58;" d="M397.076,367.995c-0.191-1.212-0.434-2.302-0.522-3.404c-0.186-2.318-1.201-4.17-3.082-5.477
			c-1.633-1.135-3.308-2.239-5.069-3.158c-3.238-1.69-5.503-4.143-6.665-7.624c-0.466-1.396-1.036-2.759-1.576-4.13
			c-1.161-2.952-3.055-5.217-6.062-6.437c-0.316-0.128-0.608-0.32-0.902-0.497c-0.064-0.039-0.089-0.143-0.184-0.306
			c0.901-1.583,1.734-3.279,2.781-4.83c1.304-1.933,5.413-2.627,7.902-1.328c1.133,0.591,2.153,1.448,3.11,2.311
			c1.092,0.985,2.06,2.109,3.075,3.178c2.071,2.182,4.509,3.719,7.414,4.616c4.527,1.399,8.422,4.041,12.273,6.698
			c2.231,1.54,3.16,3.832,3.076,6.54c-0.074,2.374-0.533,4.654-1.66,6.759c-1.374,2.567-3.396,4.312-6.281,5.059
			c-2.006,0.519-3.958,1.245-5.946,1.839C398.29,367.945,397.775,367.922,397.076,367.995z"/>
		<path style="fill:#F67B58;" d="M412.661,346.698c-2.997-1.838-5.891-3.721-8.891-5.414c-1.797-1.014-3.707-1.89-5.661-2.543
			c-2.535-0.846-4.716-2.129-6.537-4.069c-1.186-1.263-2.361-2.543-3.627-3.724c-3.807-3.552-7.14-4.07-11.879-1.933
			c-0.387,0.174-0.786,0.32-1.285,0.521c-0.601-0.486-1.188-0.962-2.005-1.622c0.991-1.435,1.778-2.893,2.86-4.081
			c2.885-3.168,6.363-5.589,10.126-7.622c2.859-1.544,5.48-1.254,7.928,0.849c0.329,0.282,0.671,0.55,0.985,0.848
			c2.336,2.217,5.03,3.715,8.301,3.858c3.599,0.158,5.863,2.101,7.604,5.078c1.219,2.085,2.681,4.041,4.147,5.968
			C418.202,337.38,417.289,343.354,412.661,346.698z"/>
		<path style="fill:#F67B58;" d="M364.942,344.746c0.923,3.069,2.797,5.865,4.928,8.515c2.5,3.109,5.094,6.151,7.426,9.382
			c1.3,1.802,2.316,3.861,3.16,5.926c0.905,2.215,0.536,4.478-0.896,6.422c-1.076,1.461-2.215,2.91-3.527,4.152
			c-1.904,1.803-4.309,1.962-6.4,0.349c-1.275-0.983-2.461-2.244-3.28-3.622c-2.155-3.627-5.072-6.365-8.806-8.235
			c-4.491-2.249-5.959-5.781-4.602-11.125c1.257-4.953,4.032-9.148,6.609-13.025C361.372,343.911,362.969,344.285,364.942,344.746z"
			/>
		<path style="fill:#F67B58;" d="M366.958,342.766c1.339-1.202,2.621-2.353,3.961-3.556c3.371,0.718,5.813,2.513,7.043,5.816
			c0.604,1.624,1.237,3.238,1.857,4.856c1.328,3.465,3.644,6.036,6.913,7.803c1.673,0.904,3.284,1.93,4.89,2.953
			c1.639,1.044,2.557,2.551,2.669,4.516c0.156,2.723,0.761,5.354,2.183,7.681c2.122,3.47-1.322,8.189-5.326,7.679
			c-3.568-0.454-6.508-2.102-9.398-4.305c2.745-5.058,1.259-9.536-1.673-13.712c-1.989-2.833-4.246-5.479-6.372-8.217
			c-1.436-1.848-2.922-3.661-4.259-5.579C368.209,346.926,367.268,344.981,366.958,342.766z"/>
	</g>
	<g>
		<path style="fill:#331D1E;" d="M153.5,312.633c-5.076,0.867-10.195,1.57-14.533,3.689c-0.171,2.578,0.071,4.816-0.56,6.772
			c-0.607,1.882-2.116,3.472-3.246,5.216c0.401,2.25,0.676,4.751,1.328,7.148c0.538,1.979,1.297,3.975,2.364,5.714
			c1.515,2.467,2.305,4.998,2.166,7.88c-0.079,1.644-0.053,3.302,0.057,4.945c0.233,3.478-1.348,6.05-4.028,7.982
			c-2.056,1.481-4.377,2.55-6.937,2.763c-1.362,0.114-2.206,0.627-2.91,1.781c-1.741,2.851-4.081,5.191-6.784,7.122
			c-6.161,4.403-13.07,4.368-18.618-1.874c-1.445-1.625-1.772-2.379-2.812-6.456c-0.888,0-1.818,0.013-2.747-0.002
			c-4.828-0.081-8.531-1.979-10.68-6.502c-1.223-2.573-2.94-4.969-2.332-8.034c-0.668-0.156-1.083-0.296-1.508-0.346
			c-6.843-0.806-9.981-9.389-6.238-14.997c0.529-0.792,1.084-1.583,1.731-2.278c1.451-1.557,2.042-3.364,1.949-5.474
			c-0.046-1.033,0.109-2.075,0.177-3.112c0.191-2.893,1.697-4.977,4.306-6.005c2.794-1.1,5.73-1.843,8.945-2.848
			c0.021-4.516,3.161-7.377,6.874-9.892c1.43-0.969,2.739-2.129,4.035-3.277c3.677-3.258,7.663-4.215,12.211-1.887
			c1.23,0.63,2.554,1.081,3.851,1.572c2.71,1.027,4.454,2.986,5.318,5.686c0.578,1.806,0.942,3.681,1.456,5.742
			c0.823-0.186,1.631-0.351,2.429-0.553c2.586-0.655,5.102-0.957,7.492,0.744c0.434,0.309,1.326,0.255,1.895,0.054
			c13.655-4.817,27.733-4.965,41.929-3.881c0.259,0.02,0.523,0.029,0.775,0.088c0.868,0.201,1.875,0.478,1.69,1.571
			c-0.201,1.187-1.242,0.884-2.112,0.776c-6.394-0.794-12.812-0.697-19.227-0.411c-0.675,0.03-1.604,0.453-1.934,0.989
			c-0.986,1.602-1.936,3.283-2.527,5.058c-0.874,2.627-1.378,5.374-2.126,8.045c-1.533,5.473-4.975,9.66-9.149,13.33
			c-0.591,0.519-1.322,1.15-2.04,0.477c-0.407-0.381-0.607-1.229-0.542-1.828c0.563-5.198,1.75-10.254,3.733-15.105
			c1.232-3.014,3.135-5.588,5.312-7.975c0.576-0.632,1.154-1.263,1.732-1.894C153.61,312.977,153.555,312.805,153.5,312.633z
			 M126.775,324.742c-0.783,1.175-1.321,2.304-2.143,3.16c-4.128,4.304-6.647,9.505-8.369,15.098
			c-2.467,8.014-6.57,14.867-13.391,19.918c-1.115,0.825-1.522,1.929-1.201,3.192c0.293,1.155,0.61,2.426,1.318,3.333
			c3.945,5.054,8.947,6.691,14.845,3.059c5.936-3.656,9.935-8.926,10.337-16.217c0.132-2.398,0.015-4.876-0.449-7.226
			c-0.982-4.975-0.935-9.807,0.947-14.561c0.096-0.241,0.157-0.496,0.247-0.74C130.158,330.373,129.232,327.49,126.775,324.742z
			 M118.27,319.943c-0.029-0.149-0.058-0.298-0.086-0.447c-0.669-0.074-1.336-0.181-2.006-0.218
			c-5.275-0.289-10.549-0.577-15.825-0.841c-4.166-0.208-8.322-0.155-12.39,0.92c-5.23,1.382-6.321,2.769-6.361,8.169
			c-0.02,2.708-0.727,5.108-2.589,7.144c-0.696,0.762-1.325,1.617-1.83,2.516c-1.538,2.737-1.136,6.426,0.874,8.77
			c1.861,2.17,4.663,2.836,7.839,1.558c1.828-0.736,3.717-1.616,5.186-2.886c3.004-2.597,5.874-5.379,8.561-8.304
			c4.696-5.112,9.317-10.278,15.158-14.151C115.945,321.415,117.112,320.687,118.27,319.943z M96.504,362.94
			c1.981,0.09,3.688-0.87,5.283-2.151c4.97-3.992,8.903-8.73,10.904-14.898c0.508-1.565,1.15-3.086,1.686-4.643
			c1.853-5.379,4.283-10.418,8.262-14.603c0.636-0.669,1.174-1.549,1.442-2.427c0.565-1.851-0.552-3.126-2.451-2.827
			c-0.914,0.144-1.831,0.533-2.647,0.989c-3.574,1.999-6.903,4.358-9.753,7.309c-3.071,3.18-6.047,6.452-9.047,9.7
			c-3.663,3.966-7.442,7.779-12.506,9.992c-2.175,0.951-2.729,2.023-1.944,4.261c0.512,1.462,1.333,2.814,1.989,4.227
			C89.432,361.554,92.477,362.953,96.504,362.94z M124.082,314.658c-0.491-1.983-0.962-4.263-1.635-6.481
			c-0.561-1.846-1.93-3.047-3.721-3.758c-1.451-0.576-2.954-1.052-4.335-1.766c-3.198-1.653-6.016-1.02-8.693,1.134
			c-2.297,1.848-4.661,3.613-6.924,5.501c-0.988,0.825-1.894,1.792-2.658,2.827c-0.767,1.038-1.248,2.253-0.78,3.74
			c2.346,0.145,4.668,0.312,6.992,0.428c5.114,0.254,10.257,0.242,15.333,0.818C120.271,317.397,122.214,317.028,124.082,314.658z
			 M132.227,329.386c-0.513,2.254-0.751,4.152-1.384,5.908c-1.515,4.203-1.805,8.391-0.877,12.785
			c0.864,4.093,1.066,8.264-0.04,12.393c-0.147,0.55-0.209,1.123-0.364,1.985c3.162-0.554,5.731-1.586,7.689-3.852
			c1.19-1.378,1.675-2.975,1.532-4.819c-0.154-1.987-0.23-3.987-0.205-5.98c0.021-1.713-0.321-3.266-1.328-4.662
			c-2.143-2.972-3.21-6.311-3.435-9.952C133.735,331.9,133.485,330.634,132.227,329.386z"/>
		<path style="fill:#F8BCCD;" d="M126.775,324.742c2.457,2.748,3.383,5.631,2.141,9.017c-0.09,0.244-0.151,0.499-0.247,0.74
			c-1.882,4.753-1.929,9.586-0.947,14.561c0.464,2.35,0.581,4.828,0.449,7.226c-0.402,7.29-4.401,12.561-10.337,16.217
			c-5.898,3.632-10.9,1.995-14.845-3.059c-0.708-0.907-1.024-2.178-1.318-3.333c-0.32-1.262,0.087-2.367,1.201-3.192
			c6.821-5.05,10.924-11.904,13.391-19.918c1.722-5.593,4.242-10.794,8.369-15.098C125.454,327.046,125.992,325.917,126.775,324.742
			z"/>
		<path style="fill:#F8BCCD;" d="M118.27,319.943c-1.158,0.743-2.325,1.472-3.471,2.232c-5.841,3.873-10.462,9.039-15.158,14.151
			c-2.687,2.925-5.557,5.707-8.561,8.304c-1.469,1.27-3.358,2.15-5.186,2.886c-3.176,1.278-5.978,0.612-7.839-1.558
			c-2.01-2.344-2.412-6.033-0.874-8.77c0.505-0.899,1.134-1.754,1.83-2.516c1.862-2.037,2.569-4.436,2.589-7.144
			c0.04-5.401,1.131-6.788,6.361-8.169c4.068-1.075,8.224-1.128,12.39-0.92c5.276,0.264,10.551,0.552,15.825,0.841
			c0.671,0.037,1.338,0.143,2.006,0.218C118.212,319.646,118.241,319.794,118.27,319.943z"/>
		<path style="fill:#F8BCCD;" d="M96.504,362.94c-4.027,0.012-7.072-1.387-8.783-5.071c-0.656-1.413-1.477-2.766-1.989-4.227
			c-0.784-2.237-0.231-3.31,1.944-4.261c5.065-2.213,8.843-6.025,12.506-9.992c3-3.248,5.976-6.52,9.047-9.7
			c2.85-2.952,6.18-5.311,9.753-7.309c0.816-0.456,1.733-0.845,2.647-0.989c1.9-0.3,3.016,0.976,2.451,2.827
			c-0.268,0.878-0.806,1.758-1.442,2.427c-3.979,4.186-6.409,9.224-8.262,14.603c-0.536,1.557-1.178,3.078-1.686,4.643
			c-2.001,6.168-5.934,10.907-10.904,14.898C100.192,362.07,98.485,363.03,96.504,362.94z"/>
		<path style="fill:#F8BCCD;" d="M124.082,314.658c-1.868,2.371-3.811,2.739-6.421,2.443c-5.077-0.576-10.219-0.564-15.333-0.818
			c-2.324-0.115-4.646-0.283-6.992-0.428c-0.468-1.487,0.013-2.702,0.78-3.74c0.765-1.035,1.67-2.003,2.658-2.827
			c2.262-1.888,4.627-3.653,6.924-5.501c2.677-2.154,5.495-2.786,8.693-1.134c1.381,0.713,2.884,1.19,4.335,1.766
			c1.791,0.711,3.161,1.912,3.721,3.758C123.12,310.395,123.591,312.675,124.082,314.658z"/>
		<path style="fill:#F8BCCD;" d="M132.227,329.386c1.259,1.249,1.509,2.514,1.588,3.806c0.224,3.642,1.292,6.98,3.435,9.952
			c1.006,1.396,1.349,2.949,1.328,4.662c-0.025,1.993,0.05,3.993,0.205,5.98c0.143,1.845-0.342,3.441-1.532,4.819
			c-1.958,2.266-4.527,3.298-7.689,3.852c0.155-0.862,0.217-1.435,0.364-1.985c1.106-4.129,0.905-8.3,0.04-12.393
			c-0.928-4.394-0.638-8.582,0.877-12.785C131.475,333.538,131.713,331.64,132.227,329.386z"/>
	</g>
</g>
</svg>
